<?xml version="1.0" encoding="UTF-8"?>
<svg width="48px" height="48px" viewBox="0 0 48 48" version="1.1" xmlns="http://www.w3.org/2000/svg" xmlns:xlink="http://www.w3.org/1999/xlink">
    <!-- Generator: Sketch 39.1 (31720) - http://www.bohemiancoding.com/sketch -->
    <title>play-button (1)</title>
    <desc>Created with Sketch.</desc>
    <defs>
        <polygon id="path-1" points="0 47.94 48 47.94 48 0 0 0"></polygon>
    </defs>
    <g id="Page-1" stroke="none" stroke-width="1" fill="none" fill-rule="evenodd">
        <g id="play-button-(1)">
            <mask id="mask-2" fill="white">
                <use xlink:href="#path-1"></use>
            </mask>
            <g id="Clip-2"></g>
            <path d="M24,0 C10.766,0 0,10.766 0,24 C0,37.234 10.766,48 24,48 C37.234,48 48,37.234 48,24 C48,10.766 37.234,0 24,0 L24,0 Z M36.449,24.66 L18.852,36.66 C18.715,36.754 18.559,36.801 18.398,36.801 C18.273,36.801 18.145,36.77 18.027,36.707 C17.766,36.57 17.602,36.297 17.602,36 L17.602,12 C17.602,11.703 17.766,11.43 18.027,11.293 C18.289,11.152 18.605,11.172 18.852,11.34 L36.453,23.34 C36.668,23.488 36.801,23.734 36.801,24 C36.801,24.266 36.668,24.512 36.449,24.66 L36.449,24.66 Z" id="Fill-1" fill="#FFFFFF" mask="url(#mask-2)"></path>
        </g>
    </g>
</svg>